<svg viewBox="0 0 20 14" fill="transparent" xmlns="http://www.w3.org/2000/svg">
  <path d="M5.83301 4.5L9.99967 7.41667L14.1663 4.5" stroke-width="1.5" stroke-linecap="round" stroke-linejoin="round" />
  <path d="M1.6665 11.1667V2.83333C1.6665 2.3913 1.8421 1.96738 2.15466 1.65482C2.46722 1.34226 2.89114 1.16666 3.33317 1.16666H16.6665C17.1085 1.16666 17.5325 1.34226 17.845 1.65482C18.1576 1.96738 18.3332 2.3913 18.3332 2.83333V11.1667C18.3332 11.6087 18.1576 12.0326 17.845 12.3452C17.5325 12.6577 17.1085 12.8333 16.6665 12.8333H3.33317C2.89114 12.8333 2.46722 12.6577 2.15466 12.3452C1.8421 12.0326 1.6665 11.6087 1.6665 11.1667Z" stroke-width="1.5" />
</svg>