<svg viewBox="0 0 20 20" fill="none" xmlns="http://www.w3.org/2000/svg">
  <path fill-rule="evenodd" clip-rule="evenodd" d="M9.99896 7.64172C8.69414 7.64172 7.64062 8.69524 7.64062 10.0001C7.64062 11.3049 8.69414 12.3584 9.99896 12.3584C11.3038 12.3584 12.3573 11.3049 12.3573 10.0001C12.3573 8.69524 11.3038 7.64172 9.99896 7.64172ZM6.39062 10.0001C6.39062 8.00488 8.00378 6.39172 9.99896 6.39172C11.9941 6.39172 13.6073 8.00488 13.6073 10.0001C13.6073 11.9952 11.9941 13.6084 9.99896 13.6084C8.00378 13.6084 6.39062 11.9952 6.39062 10.0001Z" fill="currentColor" />
  <path fill-rule="evenodd" clip-rule="evenodd" d="M1.88307 7.49745C3.8755 4.36548 6.79517 2.47498 10.0018 2.47498C13.2086 2.47498 16.1284 4.36564 18.1208 7.49786C18.575 8.20981 18.781 9.12177 18.781 9.99581C18.781 10.8698 18.575 11.7818 18.1208 12.4938C16.1284 15.626 13.2086 17.5166 10.0018 17.5166C6.79503 17.5166 3.87524 15.626 1.88281 12.4938C1.42866 11.7818 1.22266 10.8698 1.22266 9.99581C1.22266 9.12161 1.42874 8.20946 1.88307 7.49745ZM10.0018 3.72498C7.32528 3.72498 4.76173 5.30098 2.93751 8.16876L2.93698 8.16958C2.6415 8.63251 2.47266 9.29518 2.47266 9.99581C2.47266 10.6964 2.6415 11.3591 2.93698 11.822L2.93751 11.8229C4.76174 14.6906 7.32528 16.2666 10.0018 16.2666C12.6784 16.2666 15.2419 14.6906 17.0661 11.8229L17.0667 11.822C17.3622 11.3591 17.531 10.6964 17.531 9.99581C17.531 9.29518 17.3622 8.63251 17.0667 8.16958L17.0661 8.16876C15.2419 5.30098 12.6784 3.72498 10.0018 3.72498Z" fill="currentColor" />
</svg>