<svg class="svg-icon" style="width: 1em; height: 1em;vertical-align: middle;fill: currentColor;overflow: hidden;" viewBox="0 0 1024 1024" version="1.1" xmlns="http://www.w3.org/2000/svg"><path d="M989.184 533.504c0 52.736-42.496 118.272-114.176 175.104-6.144 5.12-13.824 7.68-21.504 7.68-10.24 0-19.968-4.608-26.624-12.8-11.776-14.848-9.216-36.352 5.12-48.128 60.928-48.64 88.576-97.28 88.576-121.856 0-69.12-171.52-232.448-406.528-232.448-26.624 0-53.248 2.048-79.872 5.632-18.432 3.072-35.84-10.24-38.912-28.672-2.56-18.432 10.24-35.84 28.672-38.912 29.696-4.608 59.904-6.656 89.6-6.656 263.168 0 475.648 182.272 475.648 301.056z m-136.192 272.896c13.312 13.312 13.312 34.816 0 48.128-6.656 6.656-15.36 10.24-24.064 10.24-8.704 0-17.408-3.584-24.064-10.24l-66.56-66.56c-71.168 29.696-147.968 45.568-223.744 45.568-264.704 0-479.744-181.76-479.744-300.544 0-82.432 86.016-178.176 209.92-238.592L175.616 225.28a33.9968 33.9968 0 0 1 0-48.128c13.312-13.312 34.816-13.312 48.128 0l104.96 104.96 524.288 524.288zM445.44 533.504c0 37.888 30.72 68.608 68.608 68.608 10.752 0 20.992-2.56 30.72-7.168l-92.16-92.16c-4.608 9.216-7.168 19.456-7.168 30.72z m240.64 202.24l-91.136-91.136c-23.04 16.896-50.688 26.112-80.384 26.112-75.776 0-137.216-61.44-137.216-137.216 0-29.184 9.728-56.832 26.112-79.872L296.96 346.624c-119.808 52.224-193.536 135.168-193.536 186.88 0 69.12 173.568 232.448 411.136 232.448 57.856-0.512 116.224-10.752 171.52-30.208z"  /></svg>