<svg width="14" height="15" viewBox="0 0 14 15" fill="none" xmlns="http://www.w3.org/2000/svg">
<path d="M6.33334 4.16671H7.66668V5.50004H6.33334V4.16671ZM6.33334 6.83337H7.66668V10.8334H6.33334V6.83337ZM7.00001 0.833374C3.32001 0.833374 0.333344 3.82004 0.333344 7.50004C0.333344 11.18 3.32001 14.1667 7.00001 14.1667C10.68 14.1667 13.6667 11.18 13.6667 7.50004C13.6667 3.82004 10.68 0.833374 7.00001 0.833374ZM7.00001 12.8334C4.06001 12.8334 1.66668 10.44 1.66668 7.50004C1.66668 4.56004 4.06001 2.16671 7.00001 2.16671C9.94001 2.16671 12.3333 4.56004 12.3333 7.50004C12.3333 10.44 9.94001 12.8334 7.00001 12.8334Z" fill="#6B7280"/>
</svg>
